<svg xmlns="http://www.w3.org/2000/svg" width="400" height="300" viewBox="0 0 400 300" preserveAspectRatio="xMidYMid meet">
  <style>
    .text { font-family: 'Poppins', sans-serif; font-weight: 600; }
    .primary { fill: #FF9900; }
    .secondary { fill: #0A58A5; }
    .white { fill: #FFFFFF; }
    .box { fill: #FFFFFF; stroke-width: 2px; }
  </style>

  <!-- Fond avec gradient -->
  <defs>
    <linearGradient id="grad1" x1="0%" y1="0%" x2="100%" y2="100%">
      <stop offset="0%" style="stop-color:#1C1C1C;stop-opacity:0.1" />
      <stop offset="100%" style="stop-color:#0A58A5;stop-opacity:0.2" />
    </linearGradient>
    <marker id="arrowhead" markerWidth="10" markerHeight="7" refX="9" refY="3.5" orient="auto">
      <polygon points="0 0, 10 3.5, 0 7" fill="#FF9900" />
    </marker>
  </defs>
  <rect width="400" height="300" fill="url(#grad1)" rx="10" ry="10" />

  <!-- Utilisateur -->
  <g transform="translate(50, 100)">
    <!-- Tête -->
    <circle cx="0" cy="0" r="15" fill="#0A58A5"/>
    <!-- Corps -->
    <path d="M-10 20 L10 20 L15 60 L-15 60 Z" fill="#0A58A5"/>
    <!-- Bras -->
    <line x1="-25" y1="30" x2="25" y2="30" stroke="#0A58A5" stroke-width="8"/>
  </g>

  <!-- Écran de coding -->
  <rect x="120" y="50" width="200" height="150" rx="10" fill="#1C1C1C"/>
  
  <!-- Contenu éditeur -->
  <text x="140" y="80" class="white" font-size="10" font-family="monospace">// MCP-config.js</text>
  <text x="140" y="100" class="primary" font-size="10" font-family="monospace">import FigmaMCP from '@smithery/mcp-figma'</text>
  <text x="140" y="120" class="secondary" font-size="10" font-family="monospace">FigmaMCP.init({</text>
  <text x="160" y="140" class="white" font-size="10" font-family="monospace">token: process.env.PAT,</text>
  <text x="160" y="160" class="white" font-size="10" font-family="monospace">autoSync: true</text>
  <text x="140" y="180" class="secondary" font-size="10" font-family="monospace">})</text>

  <!-- Plugins actifs -->
  <g transform="translate(340, 100)">
    <!-- Figma -->
    <rect x="0" y="0" width="40" height="40" rx="5" fill="#0A58A5"/>
    <text x="20" y="25" class="white" text-anchor="middle" font-size="9">Figma</text>
    
    <!-- GitHub -->
    <rect x="0" y="50" width="40" height="40" rx="5" fill="#0A58A5"/>
    <text x="20" y="75" class="white" text-anchor="middle" font-size="9">GitHub</text>
  </g>

  <!-- Flux MCP -->
  <path d="M75 110 Q160 80 200 100" stroke="#FF9900" fill="none" stroke-width="2" marker-end="url(#arrowhead)"/>
  <path d="M200 180 Q240 200 320 170" stroke="#FF9900" fill="none" stroke-width="2" marker-end="url(#arrowhead)"/>

  <!-- Outputs -->
  <rect x="50" y="220" width="100" height="40" rx="5" class="box" stroke="#0A58A5"/>
  <text x="100" y="240" text-anchor="middle" class="secondary" font-size="9">Auto-sync Figma ✔️</text>

  <rect x="250" y="220" width="100" height="40" rx="5" class="box" stroke="#0A58A5"/>
  <text x="300" y="240" text-anchor="middle" class="secondary" font-size="9">PR Created 🚀</text>
</svg>